<svg xmlns="http://www.w3.org/2000/svg" viewBox="0 0 48 48" width="24" height="24">
  <path fill="#EA4335" d="M24 9.5c3.1 0 5.8 1.1 7.9 2.9l5.9-5.9C34.7 2.4 29.7 0 24 0 14.6 0 6.6 5.9 2.6 14.4l6.9 5.4C11.3 13 17.1 9.5 24 9.5z"/>
  <path fill="#4285F4" d="M46.1 24.6c0-1.6-.1-3.2-.4-4.6H24v9h12.6c-.5 2.7-2.1 5-4.5 6.5l7 5.4c4.1-3.8 6.4-9.4 6.4-15.3z"/>
  <path fill="#FBBC05" d="M9.5 28.2c-.7-2.1-1.1-4.4-1.1-6.7s.4-4.6 1.1-6.7l-6.9-5.4C.9 13.4 0 18.5 0 24s.9 10.6 2.6 14.6l6.9-5.4z"/>
  <path fill="#34A853" d="M24 48c5.7 0 10.7-1.9 14.2-5.2l-7-5.4c-1.9 1.3-4.4 2-7.2 2-6.9 0-12.7-4.6-14.8-10.9l-6.9 5.4C6.6 42.1 14.6 48 24 48z"/>
</svg>