<svg xmlns="http://www.w3.org/2000/svg" width="24" height="24" fill="#1DA1F2" viewBox="0 0 24 24">
  <path d="M22.46 6c-.77.35-1.6.58-2.46.69a4.3 4.3 0 001.88-2.38c-.83.5-1.75.85-2.72 1.05A4.27 4.27 0 0016.12 4c-2.4 0-4.36 1.95-4.36 4.36 0 .34.04.66.1.97-3.63-.18-6.84-1.92-9-4.57-.37.64-.58 1.4-.58 2.2 0 1.52.78 2.86 1.97 3.65-.72-.02-1.4-.22-2-.55v.06c0 2.13 1.52 3.91 3.53 4.31-.37.1-.77.15-1.17.15-.28 0-.57-.03-.84-.08.57 1.77 2.22 3.07 4.18 3.1A8.57 8.57 0 012 19.54 12.08 12.08 0 008.29 21c7.55 0 11.68-6.26 11.68-11.68 0-.18-.01-.35-.02-.52A8.4 8.4 0 0022.46 6z"/>
</svg>